# MagicaVoxel @ Ephtracy

# group
g penzee

# material
mtllib penzee.mtl
usemtl palette

# normals
vn -1 0 0
vn 1 0 0
vn 0 0 1
vn 0 0 -1
vn 0 -1 0
vn 0 1 0

# texcoords
vt 0.0332031 0.5
vt 0.111328 0.5
vt 0.939453 0.5
vt 0.994141 0.5

# verts
v -14 0 6
v -14 0 2
v -14 0 -2
v -14 0 -6
v -14 4 6
v -14 4 2
v -14 4 -2
v -14 4 -6
v -14 10 6
v -14 10 2
v -14 10 -2
v -14 10 -6
v -14 14 6
v -14 14 2
v -14 14 -2
v -14 14 -6
v -7 3 6
v -7 3 -6
v -7 15 6
v -7 15 -6
v -7 19 6
v -7 19 -6
v -7 20 5
v -7 20 2
v -7 20 1
v -7 20 -1
v -7 20 -2
v -7 20 -5
v -7 21 2
v -7 21 1
v -7 21 -1
v -7 21 -2
v -7 22 1
v -7 22 -1
v -7 23 3
v -7 23 2
v -7 23 -2
v -7 23 -3
v -7 24 4
v -7 24 3
v -7 24 2
v -7 24 -2
v -7 24 -3
v -7 24 -4
v -7 25 4
v -7 25 3
v -7 25 -3
v -7 25 -4
v -7 26 5
v -7 26 -5
v -7 27 6
v -7 27 -6
v -6 2 5
v -6 2 -5
v -6 3 5
v -6 3 -5
v -6 15 5
v -6 15 -5
v -6 16 5
v -6 16 -5
v -6 18 5
v -6 18 -5
v -6 19 5
v -6 19 -5
v -6 27 5
v -6 27 -5
v -6 28 5
v -6 28 -5
v -1 20 8
v -1 20 6
v -1 20 -6
v -1 20 -8
v -1 21 9
v -1 21 8
v -1 21 7
v -1 21 6
v -1 21 -6
v -1 21 -7
v -1 21 -8
v -1 21 -9
v -1 22 8
v -1 22 7
v -1 22 -7
v -1 22 -8
v -1 23 8
v -1 23 7
v -1 23 -7
v -1 23 -8
v -1 24 9
v -1 24 8
v -1 24 7
v -1 24 6
v -1 24 -6
v -1 24 -7
v -1 24 -8
v -1 24 -9
v -1 25 8
v -1 25 6
v -1 25 -6
v -1 25 -8
v 0 21 7
v 0 21 6
v 0 21 -6
v 0 21 -7
v 0 22 8
v 0 22 7
v 0 22 -7
v 0 22 -8
v 0 23 8
v 0 23 7
v 0 23 -7
v 0 23 -8
v 0 24 7
v 0 24 6
v 0 24 -6
v 0 24 -7
v 7 16 -0
v 7 16 -1
v 7 19 -0
v 7 19 -1
v 8 6 -0
v 8 6 -1
v 8 7 -0
v 8 7 -1
v 8 15 -0
v 8 15 -1
v 8 16 -0
v 8 16 -1
v 8 19 -0
v 8 19 -1
v 8 21 -0
v 8 21 -1
v 9 7 -0
v 9 7 -1
v 9 8 -0
v 9 8 -1
v 9 21 -0
v 9 21 -1
v 9 22 -0
v 9 22 -1
v 10 8 -0
v 10 8 -1
v 10 9 -0
v 10 9 -1
v 11 9 -0
v 11 9 -1
v 11 11 -0
v 11 11 -1
v 12 11 -0
v 12 11 -1
v 12 13 -0
v 12 13 -1
v 12 20 -0
v 12 20 -1
v 12 21 -0
v 12 21 -1
v 13 13 -0
v 13 13 -1
v 13 15 -0
v 13 15 -1
v 13 18 -0
v 13 18 -1
v 13 20 -0
v 13 20 -1
v 14 15 -0
v 14 15 -1
v 14 18 -0
v 14 18 -1
v -9 0 6
v -9 0 2
v -9 0 -2
v -9 0 -6
v -9 4 6
v -9 4 2
v -9 4 -2
v -9 4 -6
v -9 10 6
v -9 10 2
v -9 10 -2
v -9 10 -6
v -9 14 6
v -9 14 2
v -9 14 -2
v -9 14 -6
v 0 20 8
v 0 20 6
v 0 20 -6
v 0 20 -8
v 0 21 9
v 0 21 8
v 0 21 6
v 0 21 -6
v 0 21 -8
v 0 21 -9
v 0 24 9
v 0 24 8
v 0 24 6
v 0 24 -6
v 0 24 -8
v 0 24 -9
v 0 25 8
v 0 25 6
v 0 25 -6
v 0 25 -8
v 1 21 8
v 1 21 6
v 1 21 -6
v 1 21 -8
v 1 24 8
v 1 24 6
v 1 24 -6
v 1 24 -8
v 5 2 5
v 5 2 4
v 5 2 -4
v 5 2 -5
v 5 3 5
v 5 3 4
v 5 3 -4
v 5 3 -5
v 5 15 5
v 5 15 -5
v 5 16 5
v 5 16 -5
v 5 18 5
v 5 18 -5
v 5 19 5
v 5 19 -5
v 5 27 5
v 5 27 -5
v 5 28 5
v 5 28 -5
v 6 3 6
v 6 3 4
v 6 3 -4
v 6 3 -6
v 6 5 4
v 6 5 -0
v 6 5 -1
v 6 5 -4
v 6 6 -0
v 6 6 -1
v 6 15 6
v 6 15 -6
v 6 19 6
v 6 19 -6
v 6 27 6
v 6 27 -6
v 8 5 -0
v 8 5 -1
v 8 6 -0
v 8 6 -1
v 8 16 -0
v 8 16 -1
v 8 19 -0
v 8 19 -1
v 9 6 -0
v 9 6 -1
v 9 7 -0
v 9 7 -1
v 9 19 -0
v 9 19 -1
v 9 21 -0
v 9 21 -1
v 10 7 -0
v 10 7 -1
v 10 8 -0
v 10 8 -1
v 10 15 -0
v 10 15 -1
v 10 16 -0
v 10 16 -1
v 11 8 -0
v 11 8 -1
v 11 9 -0
v 11 9 -1
v 12 9 -0
v 12 9 -1
v 12 11 -0
v 12 11 -1
v 12 21 -0
v 12 21 -1
v 12 22 -0
v 12 22 -1
v 13 11 -0
v 13 11 -1
v 13 13 -0
v 13 13 -1
v 13 20 -0
v 13 20 -1
v 13 21 -0
v 13 21 -1
v 14 13 -0
v 14 13 -1
v 14 15 -0
v 14 15 -1
v 14 18 -0
v 14 18 -1
v 14 20 -0
v 14 20 -1
v 15 15 -0
v 15 15 -1
v 15 18 -0
v 15 18 -1
v -1 21 9
v -1 24 9
v 0 21 9
v 0 24 9
v -1 20 8
v -1 21 8
v -1 24 8
v -1 25 8
v 0 20 8
v 0 21 8
v 0 24 8
v 0 25 8
v 1 21 8
v 1 24 8
v -14 0 6
v -14 4 6
v -14 10 6
v -14 14 6
v -9 0 6
v -9 4 6
v -9 10 6
v -9 14 6
v -7 3 6
v -7 15 6
v -7 19 6
v -7 27 6
v -1 20 6
v -1 21 6
v -1 24 6
v -1 25 6
v 0 20 6
v 0 21 6
v 0 24 6
v 0 25 6
v 1 21 6
v 1 24 6
v 6 3 6
v 6 15 6
v 6 19 6
v 6 27 6
v -6 2 5
v -6 3 5
v -6 15 5
v -6 16 5
v -6 18 5
v -6 19 5
v -6 27 5
v -6 28 5
v 5 2 5
v 5 3 5
v 5 15 5
v 5 16 5
v 5 18 5
v 5 19 5
v 5 27 5
v 5 28 5
v 6 5 -0
v 6 6 -0
v 7 16 -0
v 7 19 -0
v 8 5 -0
v 8 6 -0
v 8 7 -0
v 8 15 -0
v 8 16 -0
v 8 19 -0
v 8 21 -0
v 9 6 -0
v 9 7 -0
v 9 8 -0
v 9 19 -0
v 9 21 -0
v 9 22 -0
v 10 7 -0
v 10 8 -0
v 10 9 -0
v 10 15 -0
v 10 16 -0
v 11 8 -0
v 11 9 -0
v 11 11 -0
v 12 9 -0
v 12 11 -0
v 12 13 -0
v 12 20 -0
v 12 21 -0
v 12 22 -0
v 13 11 -0
v 13 13 -0
v 13 15 -0
v 13 18 -0
v 13 20 -0
v 13 21 -0
v 14 13 -0
v 14 15 -0
v 14 18 -0
v 14 20 -0
v 15 15 -0
v 15 18 -0
v -14 0 -2
v -14 4 -2
v -14 10 -2
v -14 14 -2
v -9 0 -2
v -9 4 -2
v -9 10 -2
v -9 14 -2
v -1 21 -7
v -1 22 -7
v -1 23 -7
v -1 24 -7
v 0 21 -7
v 0 22 -7
v 0 23 -7
v 0 24 -7
v -1 22 -8
v -1 23 -8
v 0 22 -8
v 0 23 -8
v -1 22 8
v -1 23 8
v 0 22 8
v 0 23 8
v -1 21 7
v -1 22 7
v -1 23 7
v -1 24 7
v 0 21 7
v 0 22 7
v 0 23 7
v 0 24 7
v -14 0 2
v -14 4 2
v -14 10 2
v -14 14 2
v -9 0 2
v -9 4 2
v -9 10 2
v -9 14 2
v 6 5 -1
v 6 6 -1
v 7 16 -1
v 7 19 -1
v 8 5 -1
v 8 6 -1
v 8 7 -1
v 8 15 -1
v 8 16 -1
v 8 19 -1
v 8 21 -1
v 9 6 -1
v 9 7 -1
v 9 8 -1
v 9 19 -1
v 9 21 -1
v 9 22 -1
v 10 7 -1
v 10 8 -1
v 10 9 -1
v 10 15 -1
v 10 16 -1
v 11 8 -1
v 11 9 -1
v 11 11 -1
v 12 9 -1
v 12 11 -1
v 12 13 -1
v 12 20 -1
v 12 21 -1
v 12 22 -1
v 13 11 -1
v 13 13 -1
v 13 15 -1
v 13 18 -1
v 13 20 -1
v 13 21 -1
v 14 13 -1
v 14 15 -1
v 14 18 -1
v 14 20 -1
v 15 15 -1
v 15 18 -1
v -6 2 -5
v -6 3 -5
v -6 15 -5
v -6 16 -5
v -6 18 -5
v -6 19 -5
v -6 27 -5
v -6 28 -5
v 5 2 -5
v 5 3 -5
v 5 15 -5
v 5 16 -5
v 5 18 -5
v 5 19 -5
v 5 27 -5
v 5 28 -5
v -14 0 -6
v -14 4 -6
v -14 10 -6
v -14 14 -6
v -9 0 -6
v -9 4 -6
v -9 10 -6
v -9 14 -6
v -7 3 -6
v -7 15 -6
v -7 19 -6
v -7 27 -6
v -1 20 -6
v -1 21 -6
v -1 24 -6
v -1 25 -6
v 0 20 -6
v 0 21 -6
v 0 24 -6
v 0 25 -6
v 1 21 -6
v 1 24 -6
v 6 3 -6
v 6 15 -6
v 6 19 -6
v 6 27 -6
v -1 20 -8
v -1 21 -8
v -1 24 -8
v -1 25 -8
v 0 20 -8
v 0 21 -8
v 0 24 -8
v 0 25 -8
v 1 21 -8
v 1 24 -8
v -1 21 -9
v -1 24 -9
v 0 21 -9
v 0 24 -9
v -14 0 6
v -9 0 6
v -14 0 2
v -9 0 2
v -14 0 -2
v -9 0 -2
v -14 0 -6
v -9 0 -6
v -6 2 5
v 5 2 5
v 2 2 4
v 5 2 4
v 2 2 1
v 3 2 1
v 2 2 -1
v 3 2 -1
v 2 2 -4
v 5 2 -4
v -6 2 -5
v 5 2 -5
v -7 3 6
v 6 3 6
v -6 3 5
v 5 3 5
v 5 3 4
v 6 3 4
v 5 3 -4
v 6 3 -4
v -6 3 -5
v 5 3 -5
v -7 3 -6
v 6 3 -6
v 6 5 -0
v 8 5 -0
v 6 5 -1
v 8 5 -1
v 8 6 -0
v 9 6 -0
v 8 6 -1
v 9 6 -1
v 9 7 -0
v 10 7 -0
v 9 7 -1
v 10 7 -1
v 10 8 -0
v 11 8 -0
v 10 8 -1
v 11 8 -1
v 11 9 -0
v 12 9 -0
v 11 9 -1
v 12 9 -1
v -14 10 6
v -9 10 6
v -14 10 2
v -9 10 2
v -14 10 -2
v -9 10 -2
v -14 10 -6
v -9 10 -6
v 12 11 -0
v 13 11 -0
v 12 11 -1
v 13 11 -1
v 13 13 -0
v 14 13 -0
v 13 13 -1
v 14 13 -1
v 8 15 -0
v 10 15 -0
v 14 15 -0
v 15 15 -0
v 8 15 -1
v 10 15 -1
v 14 15 -1
v 15 15 -1
v 7 16 -0
v 8 16 -0
v 7 16 -1
v 8 16 -1
v -6 18 5
v 5 18 5
v 13 18 -0
v 14 18 -0
v 13 18 -1
v 14 18 -1
v -6 18 -5
v 5 18 -5
v -7 19 6
v 6 19 6
v -6 19 5
v 5 19 5
v 8 19 -0
v 9 19 -0
v 8 19 -1
v 9 19 -1
v -6 19 -5
v 5 19 -5
v -7 19 -6
v 6 19 -6
v -1 20 8
v 0 20 8
v -1 20 6
v 0 20 6
v 12 20 -0
v 13 20 -0
v 12 20 -1
v 13 20 -1
v -1 20 -6
v 0 20 -6
v -1 20 -8
v 0 20 -8
v -1 21 9
v 0 21 9
v -1 21 8
v 0 21 8
v 1 21 8
v 0 21 6
v 1 21 6
v 9 21 -0
v 12 21 -0
v 9 21 -1
v 12 21 -1
v 0 21 -6
v 1 21 -6
v -1 21 -8
v 0 21 -8
v 1 21 -8
v -1 21 -9
v 0 21 -9
v -1 23 8
v 0 23 8
v -1 23 7
v 0 23 7
v -1 23 -7
v 0 23 -7
v -1 23 -8
v 0 23 -8
v -1 24 7
v 0 24 7
v -1 24 6
v 0 24 6
v -1 24 -6
v 0 24 -6
v -1 24 -7
v 0 24 -7
v -14 4 6
v -9 4 6
v -14 4 2
v -9 4 2
v -14 4 -2
v -9 4 -2
v -14 4 -6
v -9 4 -6
v 6 6 -0
v 8 6 -0
v 6 6 -1
v 8 6 -1
v 8 7 -0
v 9 7 -0
v 8 7 -1
v 9 7 -1
v 9 8 -0
v 10 8 -0
v 9 8 -1
v 10 8 -1
v 10 9 -0
v 11 9 -0
v 10 9 -1
v 11 9 -1
v 11 11 -0
v 12 11 -0
v 11 11 -1
v 12 11 -1
v 12 13 -0
v 13 13 -0
v 12 13 -1
v 13 13 -1
v -14 14 6
v -9 14 6
v -14 14 2
v -9 14 2
v -14 14 -2
v -9 14 -2
v -14 14 -6
v -9 14 -6
v -7 15 6
v 6 15 6
v -6 15 5
v 5 15 5
v 13 15 -0
v 14 15 -0
v 13 15 -1
v 14 15 -1
v -6 15 -5
v 5 15 -5
v -7 15 -6
v 6 15 -6
v -6 16 5
v 5 16 5
v 8 16 -0
v 10 16 -0
v 8 16 -1
v 10 16 -1
v -6 16 -5
v 5 16 -5
v 14 18 -0
v 15 18 -0
v 14 18 -1
v 15 18 -1
v 7 19 -0
v 8 19 -0
v 7 19 -1
v 8 19 -1
v 13 20 -0
v 14 20 -0
v 13 20 -1
v 14 20 -1
v -1 21 7
v 0 21 7
v -1 21 6
v 0 21 6
v 8 21 -0
v 9 21 -0
v 12 21 -0
v 13 21 -0
v 8 21 -1
v 9 21 -1
v 12 21 -1
v 13 21 -1
v -1 21 -6
v 0 21 -6
v -1 21 -7
v 0 21 -7
v -1 22 8
v 0 22 8
v -1 22 7
v 0 22 7
v 9 22 -0
v 12 22 -0
v 9 22 -1
v 12 22 -1
v -1 22 -7
v 0 22 -7
v -1 22 -8
v 0 22 -8
v -1 24 9
v 0 24 9
v -1 24 8
v 0 24 8
v 1 24 8
v 0 24 6
v 1 24 6
v 0 24 -6
v 1 24 -6
v -1 24 -8
v 0 24 -8
v 1 24 -8
v -1 24 -9
v 0 24 -9
v -1 25 8
v 0 25 8
v -1 25 6
v 0 25 6
v -1 25 -6
v 0 25 -6
v -1 25 -8
v 0 25 -8
v -7 27 6
v 6 27 6
v -6 27 5
v 5 27 5
v -6 27 -5
v 5 27 -5
v -7 27 -6
v 6 27 -6
v -6 28 5
v 5 28 5
v -6 28 -5
v 5 28 -5

# faces
f 5/3/1 2/3/1 1/3/1
f 6/3/1 2/3/1 5/3/1
f 7/3/1 4/3/1 3/3/1
f 8/3/1 4/3/1 7/3/1
f 13/3/1 10/3/1 9/3/1
f 14/3/1 10/3/1 13/3/1
f 15/3/1 12/3/1 11/3/1
f 16/3/1 12/3/1 15/3/1
f 19/3/1 18/3/1 17/3/1
f 20/3/1 18/3/1 19/3/1
f 23/3/1 22/3/1 21/3/1
f 24/3/1 22/3/1 23/3/1
f 25/3/1 22/3/1 24/3/1
f 26/3/1 22/3/1 25/3/1
f 27/3/1 22/3/1 26/3/1
f 28/3/1 22/3/1 27/3/1
f 29/1/1 24/1/1 23/1/1
f 29/4/1 25/4/1 24/4/1
f 30/1/1 26/1/1 25/1/1
f 30/4/1 25/4/1 29/4/1
f 31/4/1 27/4/1 26/4/1
f 31/1/1 26/1/1 30/1/1
f 32/1/1 28/1/1 27/1/1
f 32/4/1 27/4/1 31/4/1
f 33/4/1 31/4/1 30/4/1
f 33/1/1 30/1/1 29/1/1
f 34/1/1 32/1/1 31/1/1
f 34/4/1 31/4/1 33/4/1
f 35/1/1 29/1/1 23/1/1
f 35/1/1 33/1/1 29/1/1
f 35/1/1 34/1/1 33/1/1
f 36/1/1 34/1/1 35/1/1
f 37/1/1 28/1/1 32/1/1
f 37/1/1 34/1/1 36/1/1
f 37/1/1 32/1/1 34/1/1
f 38/1/1 28/1/1 37/1/1
f 39/1/1 35/1/1 23/1/1
f 40/4/1 36/4/1 35/4/1
f 40/1/1 35/1/1 39/1/1
f 41/1/1 37/1/1 36/1/1
f 41/4/1 36/4/1 40/4/1
f 42/4/1 38/4/1 37/4/1
f 42/1/1 37/1/1 41/1/1
f 43/1/1 28/1/1 38/1/1
f 43/4/1 38/4/1 42/4/1
f 44/1/1 28/1/1 43/1/1
f 45/1/1 39/1/1 23/1/1
f 45/4/1 40/4/1 39/4/1
f 46/1/1 42/1/1 41/1/1
f 46/4/1 40/4/1 45/4/1
f 46/1/1 41/1/1 40/1/1
f 46/1/1 43/1/1 42/1/1
f 47/4/1 44/4/1 43/4/1
f 47/1/1 43/1/1 46/1/1
f 48/1/1 28/1/1 44/1/1
f 48/4/1 44/4/1 47/4/1
f 49/3/1 23/3/1 21/3/1
f 49/1/1 47/1/1 46/1/1
f 49/1/1 48/1/1 47/1/1
f 49/1/1 46/1/1 45/1/1
f 49/1/1 45/1/1 23/1/1
f 50/1/1 28/1/1 48/1/1
f 50/1/1 48/1/1 49/1/1
f 50/3/1 22/3/1 28/3/1
f 51/3/1 49/3/1 21/3/1
f 51/3/1 50/3/1 49/3/1
f 52/3/1 22/3/1 50/3/1
f 52/3/1 50/3/1 51/3/1
f 55/3/1 54/3/1 53/3/1
f 56/3/1 54/3/1 55/3/1
f 59/3/1 58/3/1 57/3/1
f 60/3/1 58/3/1 59/3/1
f 63/3/1 62/3/1 61/3/1
f 64/3/1 62/3/1 63/3/1
f 67/3/1 66/3/1 65/3/1
f 68/3/1 66/3/1 67/3/1
f 74/1/1 70/1/1 69/1/1
f 75/1/1 70/1/1 74/1/1
f 76/1/1 70/1/1 75/1/1
f 77/1/1 72/1/1 71/1/1
f 78/1/1 72/1/1 77/1/1
f 79/1/1 72/1/1 78/1/1
f 81/1/1 74/1/1 73/1/1
f 81/1/1 75/1/1 74/1/1
f 82/1/1 75/1/1 81/1/1
f 83/1/1 80/1/1 79/1/1
f 83/1/1 79/1/1 78/1/1
f 84/1/1 80/1/1 83/1/1
f 85/1/1 81/1/1 73/1/1
f 88/1/1 80/1/1 84/1/1
f 89/1/1 86/1/1 85/1/1
f 89/1/1 85/1/1 73/1/1
f 90/1/1 86/1/1 89/1/1
f 91/1/1 86/1/1 90/1/1
f 94/1/1 88/1/1 87/1/1
f 95/1/1 80/1/1 88/1/1
f 95/1/1 88/1/1 94/1/1
f 96/1/1 80/1/1 95/1/1
f 97/1/1 92/1/1 91/1/1
f 97/1/1 91/1/1 90/1/1
f 98/1/1 92/1/1 97/1/1
f 99/1/1 94/1/1 93/1/1
f 99/1/1 95/1/1 94/1/1
f 100/1/1 95/1/1 99/1/1
f 106/1/1 102/1/1 101/1/1
f 107/1/1 104/1/1 103/1/1
f 109/1/1 106/1/1 105/1/1
f 110/1/1 102/1/1 106/1/1
f 110/1/1 106/1/1 109/1/1
f 111/1/1 108/1/1 107/1/1
f 111/1/1 107/1/1 103/1/1
f 112/1/1 108/1/1 111/1/1
f 113/1/1 102/1/1 110/1/1
f 114/1/1 102/1/1 113/1/1
f 115/1/1 111/1/1 103/1/1
f 116/1/1 111/1/1 115/1/1
f 119/3/1 118/3/1 117/3/1
f 120/3/1 118/3/1 119/3/1
f 123/3/1 122/3/1 121/3/1
f 124/3/1 122/3/1 123/3/1
f 127/3/1 126/3/1 125/3/1
f 128/3/1 126/3/1 127/3/1
f 131/3/1 130/3/1 129/3/1
f 132/3/1 130/3/1 131/3/1
f 135/3/1 134/3/1 133/3/1
f 136/3/1 134/3/1 135/3/1
f 139/3/1 138/3/1 137/3/1
f 140/3/1 138/3/1 139/3/1
f 143/3/1 142/3/1 141/3/1
f 144/3/1 142/3/1 143/3/1
f 147/3/1 146/3/1 145/3/1
f 148/3/1 146/3/1 147/3/1
f 151/3/1 150/3/1 149/3/1
f 152/3/1 150/3/1 151/3/1
f 155/3/1 154/3/1 153/3/1
f 156/3/1 154/3/1 155/3/1
f 159/3/1 158/3/1 157/3/1
f 160/3/1 158/3/1 159/3/1
f 163/3/1 162/3/1 161/3/1
f 164/3/1 162/3/1 163/3/1
f 167/3/1 166/3/1 165/3/1
f 168/3/1 166/3/1 167/3/1
f 169/3/2 170/3/2 173/3/2
f 173/3/2 170/3/2 174/3/2
f 171/3/2 172/3/2 175/3/2
f 175/3/2 172/3/2 176/3/2
f 177/3/2 178/3/2 181/3/2
f 181/3/2 178/3/2 182/3/2
f 179/3/2 180/3/2 183/3/2
f 183/3/2 180/3/2 184/3/2
f 185/1/2 186/1/2 190/1/2
f 190/1/2 186/1/2 191/1/2
f 187/1/2 188/1/2 192/1/2
f 192/1/2 188/1/2 193/1/2
f 189/1/2 190/1/2 195/1/2
f 195/1/2 190/1/2 196/1/2
f 193/1/2 194/1/2 199/1/2
f 199/1/2 194/1/2 200/1/2
f 196/1/2 197/1/2 201/1/2
f 201/1/2 197/1/2 202/1/2
f 198/1/2 199/1/2 203/1/2
f 203/1/2 199/1/2 204/1/2
f 205/1/2 206/1/2 209/1/2
f 209/1/2 206/1/2 210/1/2
f 207/1/2 208/1/2 211/1/2
f 211/1/2 208/1/2 212/1/2
f 213/3/2 214/3/2 217/3/2
f 214/2/2 215/2/2 218/2/2
f 217/3/2 214/3/2 218/3/2
f 215/3/2 216/3/2 219/3/2
f 218/2/2 215/2/2 219/2/2
f 219/3/2 216/3/2 220/3/2
f 221/3/2 222/3/2 223/3/2
f 223/3/2 222/3/2 224/3/2
f 225/3/2 226/3/2 227/3/2
f 227/3/2 226/3/2 228/3/2
f 229/3/2 230/3/2 231/3/2
f 231/3/2 230/3/2 232/3/2
f 233/3/2 234/3/2 237/3/2
f 234/2/2 235/2/2 237/2/2
f 237/2/2 235/2/2 238/2/2
f 238/2/2 235/2/2 239/2/2
f 235/3/2 236/3/2 240/3/2
f 239/2/2 235/2/2 240/2/2
f 237/3/2 238/3/2 241/3/2
f 239/3/2 240/3/2 242/3/2
f 233/3/2 237/3/2 243/3/2
f 241/3/2 242/3/2 243/3/2
f 237/3/2 241/3/2 243/3/2
f 240/3/2 236/3/2 244/3/2
f 243/3/2 242/3/2 244/3/2
f 242/3/2 240/3/2 244/3/2
f 245/3/2 246/3/2 247/3/2
f 247/3/2 246/3/2 248/3/2
f 249/3/2 250/3/2 251/3/2
f 251/3/2 250/3/2 252/3/2
f 253/3/2 254/3/2 255/3/2
f 255/3/2 254/3/2 256/3/2
f 257/3/2 258/3/2 259/3/2
f 259/3/2 258/3/2 260/3/2
f 261/3/2 262/3/2 263/3/2
f 263/3/2 262/3/2 264/3/2
f 265/3/2 266/3/2 267/3/2
f 267/3/2 266/3/2 268/3/2
f 269/3/2 270/3/2 271/3/2
f 271/3/2 270/3/2 272/3/2
f 273/3/2 274/3/2 275/3/2
f 275/3/2 274/3/2 276/3/2
f 277/3/2 278/3/2 279/3/2
f 279/3/2 278/3/2 280/3/2
f 281/3/2 282/3/2 283/3/2
f 283/3/2 282/3/2 284/3/2
f 285/3/2 286/3/2 287/3/2
f 287/3/2 286/3/2 288/3/2
f 289/3/2 290/3/2 291/3/2
f 291/3/2 290/3/2 292/3/2
f 293/3/2 294/3/2 295/3/2
f 295/3/2 294/3/2 296/3/2
f 297/3/2 298/3/2 299/3/2
f 299/3/2 298/3/2 300/3/2
f 301/3/2 302/3/2 303/3/2
f 303/3/2 302/3/2 304/3/2
f 307/1/3 306/1/3 305/1/3
f 308/1/3 306/1/3 307/1/3
f 313/1/3 310/1/3 309/1/3
f 314/1/3 310/1/3 313/1/3
f 315/1/3 312/1/3 311/1/3
f 316/1/3 312/1/3 315/1/3
f 317/1/3 315/1/3 314/1/3
f 318/1/3 315/1/3 317/1/3
f 323/3/3 320/3/3 319/3/3
f 324/3/3 320/3/3 323/3/3
f 325/3/3 322/3/3 321/3/3
f 326/3/3 322/3/3 325/3/3
f 331/3/3 330/3/3 329/3/3
f 332/3/3 330/3/3 331/3/3
f 333/3/3 330/3/3 332/3/3
f 334/3/3 330/3/3 333/3/3
f 335/3/3 331/3/3 329/3/3
f 336/3/3 333/3/3 332/3/3
f 337/3/3 333/3/3 336/3/3
f 338/3/3 330/3/3 334/3/3
f 339/3/3 336/3/3 335/3/3
f 340/3/3 338/3/3 337/3/3
f 341/3/3 328/3/3 327/3/3
f 342/3/3 328/3/3 341/3/3
f 343/3/3 340/3/3 339/3/3
f 343/3/3 339/3/3 335/3/3
f 343/3/3 335/3/3 329/3/3
f 344/3/3 338/3/3 340/3/3
f 344/3/3 340/3/3 343/3/3
f 344/3/3 330/3/3 338/3/3
f 353/3/3 346/3/3 345/3/3
f 354/3/3 346/3/3 353/3/3
f 355/3/3 348/3/3 347/3/3
f 356/3/3 348/3/3 355/3/3
f 357/3/3 350/3/3 349/3/3
f 358/3/3 350/3/3 357/3/3
f 359/3/3 352/3/3 351/3/3
f 360/3/3 352/3/3 359/3/3
f 365/3/3 362/3/3 361/3/3
f 366/3/3 362/3/3 365/3/3
f 369/3/3 364/3/3 363/3/3
f 370/3/3 364/3/3 369/3/3
f 372/3/3 367/3/3 366/3/3
f 373/3/3 367/3/3 372/3/3
f 375/3/3 371/3/3 370/3/3
f 376/3/3 371/3/3 375/3/3
f 378/3/3 374/3/3 373/3/3
f 379/3/3 374/3/3 378/3/3
f 381/3/3 369/3/3 368/3/3
f 382/3/3 369/3/3 381/3/3
f 383/3/3 380/3/3 379/3/3
f 384/3/3 380/3/3 383/3/3
f 386/3/3 385/3/3 384/3/3
f 387/3/3 385/3/3 386/3/3
f 390/3/3 377/3/3 376/3/3
f 391/3/3 377/3/3 390/3/3
f 392/3/3 388/3/3 387/3/3
f 393/3/3 388/3/3 392/3/3
f 396/3/3 390/3/3 389/3/3
f 397/3/3 390/3/3 396/3/3
f 398/3/3 394/3/3 393/3/3
f 399/3/3 394/3/3 398/3/3
f 400/3/3 396/3/3 395/3/3
f 401/3/3 396/3/3 400/3/3
f 402/3/3 400/3/3 399/3/3
f 403/3/3 400/3/3 402/3/3
f 408/3/3 405/3/3 404/3/3
f 409/3/3 405/3/3 408/3/3
f 410/3/3 407/3/3 406/3/3
f 411/3/3 407/3/3 410/3/3
f 416/1/3 413/1/3 412/1/3
f 417/1/3 413/1/3 416/1/3
f 418/1/3 415/1/3 414/1/3
f 419/1/3 415/1/3 418/1/3
f 422/1/3 421/1/3 420/1/3
f 423/1/3 421/1/3 422/1/3
f 424/1/4 425/1/4 426/1/4
f 426/1/4 425/1/4 427/1/4
f 428/1/4 429/1/4 432/1/4
f 432/1/4 429/1/4 433/1/4
f 430/1/4 431/1/4 434/1/4
f 434/1/4 431/1/4 435/1/4
f 436/3/4 437/3/4 440/3/4
f 440/3/4 437/3/4 441/3/4
f 438/3/4 439/3/4 442/3/4
f 442/3/4 439/3/4 443/3/4
f 444/3/4 445/3/4 448/3/4
f 448/3/4 445/3/4 449/3/4
f 446/3/4 447/3/4 452/3/4
f 452/3/4 447/3/4 453/3/4
f 449/3/4 450/3/4 455/3/4
f 455/3/4 450/3/4 456/3/4
f 453/3/4 454/3/4 458/3/4
f 458/3/4 454/3/4 459/3/4
f 456/3/4 457/3/4 461/3/4
f 461/3/4 457/3/4 462/3/4
f 451/3/4 452/3/4 464/3/4
f 464/3/4 452/3/4 465/3/4
f 462/3/4 463/3/4 466/3/4
f 466/3/4 463/3/4 467/3/4
f 467/3/4 468/3/4 469/3/4
f 469/3/4 468/3/4 470/3/4
f 459/3/4 460/3/4 473/3/4
f 473/3/4 460/3/4 474/3/4
f 470/3/4 471/3/4 475/3/4
f 475/3/4 471/3/4 476/3/4
f 472/3/4 473/3/4 479/3/4
f 479/3/4 473/3/4 480/3/4
f 476/3/4 477/3/4 481/3/4
f 481/3/4 477/3/4 482/3/4
f 478/3/4 479/3/4 483/3/4
f 483/3/4 479/3/4 484/3/4
f 482/3/4 483/3/4 485/3/4
f 485/3/4 483/3/4 486/3/4
f 487/3/4 488/3/4 495/3/4
f 495/3/4 488/3/4 496/3/4
f 489/3/4 490/3/4 497/3/4
f 497/3/4 490/3/4 498/3/4
f 491/3/4 492/3/4 499/3/4
f 499/3/4 492/3/4 500/3/4
f 493/3/4 494/3/4 501/3/4
f 501/3/4 494/3/4 502/3/4
f 503/3/4 504/3/4 507/3/4
f 507/3/4 504/3/4 508/3/4
f 505/3/4 506/3/4 509/3/4
f 509/3/4 506/3/4 510/3/4
f 513/3/4 514/3/4 515/3/4
f 515/3/4 514/3/4 516/3/4
f 516/3/4 514/3/4 517/3/4
f 517/3/4 514/3/4 518/3/4
f 513/3/4 515/3/4 519/3/4
f 516/3/4 517/3/4 520/3/4
f 520/3/4 517/3/4 521/3/4
f 518/3/4 514/3/4 522/3/4
f 519/3/4 520/3/4 523/3/4
f 521/3/4 522/3/4 524/3/4
f 511/3/4 512/3/4 525/3/4
f 525/3/4 512/3/4 526/3/4
f 523/3/4 524/3/4 527/3/4
f 519/3/4 523/3/4 527/3/4
f 513/3/4 519/3/4 527/3/4
f 524/3/4 522/3/4 528/3/4
f 527/3/4 524/3/4 528/3/4
f 522/3/4 514/3/4 528/3/4
f 529/1/4 530/1/4 533/1/4
f 533/1/4 530/1/4 534/1/4
f 531/1/4 532/1/4 535/1/4
f 535/1/4 532/1/4 536/1/4
f 534/1/4 535/1/4 537/1/4
f 537/1/4 535/1/4 538/1/4
f 539/1/4 540/1/4 541/1/4
f 541/1/4 540/1/4 542/1/4
f 545/3/5 544/3/5 543/3/5
f 546/3/5 544/3/5 545/3/5
f 549/3/5 548/3/5 547/3/5
f 550/3/5 548/3/5 549/3/5
f 553/3/5 552/3/5 551/3/5
f 554/3/5 552/3/5 553/3/5
f 555/3/5 553/3/5 551/3/5
f 555/2/5 554/2/5 553/2/5
f 556/2/5 554/2/5 555/2/5
f 557/3/5 555/3/5 551/3/5
f 557/3/5 556/3/5 555/3/5
f 558/2/5 554/2/5 556/2/5
f 558/3/5 556/3/5 557/3/5
f 559/3/5 557/3/5 551/3/5
f 559/2/5 558/2/5 557/2/5
f 560/2/5 554/2/5 558/2/5
f 560/2/5 558/2/5 559/2/5
f 561/3/5 559/3/5 551/3/5
f 561/3/5 560/3/5 559/3/5
f 562/3/5 560/3/5 561/3/5
f 565/3/5 564/3/5 563/3/5
f 566/3/5 564/3/5 565/3/5
f 567/3/5 564/3/5 566/3/5
f 568/3/5 564/3/5 567/3/5
f 569/2/5 568/2/5 567/2/5
f 570/2/5 568/2/5 569/2/5
f 571/3/5 565/3/5 563/3/5
f 572/3/5 570/3/5 569/3/5
f 573/3/5 571/3/5 563/3/5
f 573/3/5 572/3/5 571/3/5
f 574/3/5 570/3/5 572/3/5
f 574/3/5 572/3/5 573/3/5
f 577/3/5 576/3/5 575/3/5
f 578/3/5 576/3/5 577/3/5
f 581/3/5 580/3/5 579/3/5
f 582/3/5 580/3/5 581/3/5
f 585/3/5 584/3/5 583/3/5
f 586/3/5 584/3/5 585/3/5
f 589/3/5 588/3/5 587/3/5
f 590/3/5 588/3/5 589/3/5
f 593/3/5 592/3/5 591/3/5
f 594/3/5 592/3/5 593/3/5
f 597/3/5 596/3/5 595/3/5
f 598/3/5 596/3/5 597/3/5
f 601/3/5 600/3/5 599/3/5
f 602/3/5 600/3/5 601/3/5
f 605/3/5 604/3/5 603/3/5
f 606/3/5 604/3/5 605/3/5
f 609/3/5 608/3/5 607/3/5
f 610/3/5 608/3/5 609/3/5
f 615/3/5 612/3/5 611/3/5
f 616/3/5 612/3/5 615/3/5
f 617/3/5 614/3/5 613/3/5
f 618/3/5 614/3/5 617/3/5
f 621/3/5 620/3/5 619/3/5
f 622/3/5 620/3/5 621/3/5
f 627/3/5 626/3/5 625/3/5
f 628/3/5 626/3/5 627/3/5
f 629/3/5 624/3/5 623/3/5
f 630/3/5 624/3/5 629/3/5
f 633/3/5 632/3/5 631/3/5
f 634/3/5 632/3/5 633/3/5
f 637/3/5 636/3/5 635/3/5
f 638/3/5 636/3/5 637/3/5
f 639/3/5 633/3/5 631/3/5
f 640/3/5 632/3/5 634/3/5
f 641/3/5 639/3/5 631/3/5
f 641/3/5 640/3/5 639/3/5
f 642/3/5 632/3/5 640/3/5
f 642/3/5 640/3/5 641/3/5
f 645/1/5 644/1/5 643/1/5
f 646/1/5 644/1/5 645/1/5
f 649/3/5 648/3/5 647/3/5
f 650/3/5 648/3/5 649/3/5
f 653/1/5 652/1/5 651/1/5
f 654/1/5 652/1/5 653/1/5
f 657/1/5 656/1/5 655/1/5
f 658/1/5 656/1/5 657/1/5
f 660/1/5 659/1/5 658/1/5
f 661/1/5 659/1/5 660/1/5
f 664/3/5 663/3/5 662/3/5
f 665/3/5 663/3/5 664/3/5
f 669/1/5 667/1/5 666/1/5
f 670/1/5 667/1/5 669/1/5
f 671/1/5 669/1/5 668/1/5
f 672/1/5 669/1/5 671/1/5
f 675/1/5 674/1/5 673/1/5
f 676/1/5 674/1/5 675/1/5
f 679/1/5 678/1/5 677/1/5
f 680/1/5 678/1/5 679/1/5
f 683/1/5 682/1/5 681/1/5
f 684/1/5 682/1/5 683/1/5
f 687/1/5 686/1/5 685/1/5
f 688/1/5 686/1/5 687/1/5
f 689/3/6 690/3/6 691/3/6
f 691/3/6 690/3/6 692/3/6
f 693/3/6 694/3/6 695/3/6
f 695/3/6 694/3/6 696/3/6
f 697/3/6 698/3/6 699/3/6
f 699/3/6 698/3/6 700/3/6
f 701/3/6 702/3/6 703/3/6
f 703/3/6 702/3/6 704/3/6
f 705/3/6 706/3/6 707/3/6
f 707/3/6 706/3/6 708/3/6
f 709/3/6 710/3/6 711/3/6
f 711/3/6 710/3/6 712/3/6
f 713/3/6 714/3/6 715/3/6
f 715/3/6 714/3/6 716/3/6
f 717/3/6 718/3/6 719/3/6
f 719/3/6 718/3/6 720/3/6
f 721/3/6 722/3/6 723/3/6
f 723/3/6 722/3/6 724/3/6
f 725/3/6 726/3/6 727/3/6
f 727/3/6 726/3/6 728/3/6
f 729/3/6 730/3/6 731/3/6
f 731/3/6 730/3/6 732/3/6
f 733/3/6 734/3/6 735/3/6
f 735/3/6 734/3/6 736/3/6
f 729/3/6 731/3/6 737/3/6
f 732/3/6 730/3/6 738/3/6
f 729/3/6 737/3/6 739/3/6
f 737/3/6 738/3/6 739/3/6
f 738/3/6 730/3/6 740/3/6
f 739/3/6 738/3/6 740/3/6
f 743/3/6 744/3/6 745/3/6
f 745/3/6 744/3/6 746/3/6
f 741/3/6 742/3/6 747/3/6
f 747/3/6 742/3/6 748/3/6
f 749/3/6 750/3/6 751/3/6
f 751/3/6 750/3/6 752/3/6
f 753/3/6 754/3/6 755/3/6
f 755/3/6 754/3/6 756/3/6
f 757/3/6 758/3/6 759/3/6
f 759/3/6 758/3/6 760/3/6
f 761/1/6 762/1/6 763/1/6
f 763/1/6 762/1/6 764/1/6
f 765/3/6 766/3/6 769/3/6
f 769/3/6 766/3/6 770/3/6
f 767/3/6 768/3/6 771/3/6
f 771/3/6 768/3/6 772/3/6
f 773/1/6 774/1/6 775/1/6
f 775/1/6 774/1/6 776/1/6
f 777/1/6 778/1/6 779/1/6
f 779/1/6 778/1/6 780/1/6
f 781/3/6 782/3/6 783/3/6
f 783/3/6 782/3/6 784/3/6
f 785/1/6 786/1/6 787/1/6
f 787/1/6 786/1/6 788/1/6
f 789/1/6 790/1/6 791/1/6
f 791/1/6 790/1/6 792/1/6
f 792/1/6 793/1/6 794/1/6
f 794/1/6 793/1/6 795/1/6
f 796/1/6 797/1/6 799/1/6
f 799/1/6 797/1/6 800/1/6
f 798/1/6 799/1/6 801/1/6
f 801/1/6 799/1/6 802/1/6
f 803/1/6 804/1/6 805/1/6
f 805/1/6 804/1/6 806/1/6
f 807/1/6 808/1/6 809/1/6
f 809/1/6 808/1/6 810/1/6
f 811/3/6 812/3/6 813/3/6
f 813/3/6 812/3/6 814/3/6
f 811/3/6 813/3/6 815/3/6
f 814/3/6 812/3/6 816/3/6
f 811/3/6 815/3/6 817/3/6
f 815/3/6 816/3/6 817/3/6
f 816/3/6 812/3/6 818/3/6
f 817/3/6 816/3/6 818/3/6
f 819/3/6 820/3/6 821/3/6
f 821/3/6 820/3/6 822/3/6
